<?xml version="1.0" encoding="utf-8"?>
<!-- Generator: Adobe Illustrator 19.2.1, SVG Export Plug-In . SVG Version: 6.00 Build 0)  -->
<svg version="1.1" id="Layer_1" xmlns="http://www.w3.org/2000/svg" xmlns:xlink="http://www.w3.org/1999/xlink" x="0px" y="0px"
	 viewBox="0 0 500 500" style="enable-background:new 0 0 500 500;" xml:space="preserve">
<style type="text/css">
	.st0{fill:#F4D3AA;}
	.st1{fill:#6290C3;}
	.st2{fill:#78A6D1;}
	.st3{fill:#FFFFFF;}
	.st4{opacity:0.3;}
	.st5{fill:#EEF3F9;}
	.st6{opacity:0.9;}
	.st7{fill:#F0F2F8;}
	.st8{fill:#EDF0F7;}
	.st9{fill:#EEF1F8;}
	.st10{fill:#C2CFE6;}
	.st11{fill:#CAD5E9;}
	.st12{fill:#C5D2E7;}
	.st13{fill:#CDD7EA;}
	.st14{fill:#DAE1EF;}
	.st15{fill:#D5DEED;}
	.st16{fill:#DFE5F1;}
	.st17{fill:#E7EBF5;}
	.st18{fill:#4E5057;}
	.st19{fill:#4F5057;}
	.st20{fill:#DABD9D;}
	.st21{fill:#336390;}
</style>
<g>
	<g id="XMLID_1562_">
		<g>
			<path id="XMLID_1556_" class="st0" d="M248.8,465.9c-2-2-4.4-3.4-7-4.3v-60.8h-8.6v56.9c-7.7-4.2-18.1-2.6-25.2,4.5
				c-8.4,8.5-1.3,33.4-1.1,29.3c0.1-2.4,3.8-5.5,8.6-9c0.2,8.6,2.9,16.6,2.9,14.2C218.7,488.9,256.6,473.5,248.8,465.9z"/>
			<path class="st1" d="M250.3,464.7c-1.8-1.6-6.1-3.2-6.5-4.2c-0.6-1.3,0-4.4,0-5.9c0-7,0-14,0-21c0-11,0-22,0-33
				c0-1-0.9-1.4-1.8-1.4c-2.9,0-5.7,0-8.6,0c-0.8,0-2.1,0.7-2.1,1.6c0,19,0,37.9,0,56.9c1-0.5,2-1,3-1.5
				c-10.8-5.3-27.4-1.3-31.2,11.2c-1.7,5.5-1.3,11.6-0.4,17.2c0.3,2,0.6,7.7,3,8.6c1.1,0.4,2.4-0.1,2.9-1.1c2.2-3.8,4.5-6.1,8.2-8.7
				c-1.1-0.3-2.2-0.6-3.2-0.8c0.1,2.9,0,14.7,3.7,15.8c1.2,0.4,2.8-0.1,3-1.5c1.6-8.4,39-21.9,30.3-31.9c-1.2-1.4-4.8,0.2-3.5,1.7
				c4.3,5-13.5,14.7-16.7,16.8c-4.9,3.3-12.8,7.2-14,13.6c1-0.5,2-1,3-1.5c-1.3-0.4-2-13-2-13.4c-0.1-1.7-2.2-1.6-3.2-0.8
				c-4.4,3.2-6.8,5.7-9.3,10.1c1-0.4,2-0.7,2.9-1.1c0.3,0.1-0.9-4.5-1.1-5.7c-0.7-3.9-1.1-8-0.7-12c1.1-13,14.6-19.5,26.1-13.9
				c1,0.5,3-0.2,3-1.5c0-19,0-37.9,0-56.9c-0.7,0.5-1.4,1.1-2.1,1.6c2.9,0,5.7,0,8.6,0c-0.6-0.5-1.2-0.9-1.8-1.4
				c0,20.3,0,40.5,0,60.8c0,0.6,0.3,1,0.9,1.2c2.5,1,4.6,2.3,6.6,4.1C248.7,468.2,252,466.2,250.3,464.7z"/>
		</g>
		<g>
			<path id="XMLID_1555_" class="st0" d="M253.4,467.2c2-2,4.4-3.4,7-4.3v-60.8h8.6V459c7.7-4.2,18.1-2.6,25.2,4.5
				c8.4,8.5,1.3,33.4,1.1,29.3c-0.1-2.4-3.8-5.5-8.6-9c-0.2,8.6-2.9,16.6-2.9,14.2C283.5,490.2,245.6,474.9,253.4,467.2z"/>
			<path class="st1" d="M254.9,467.4c1.8-1.8,3.8-3,6.2-3.9c0.5-0.2,1.2-0.5,1.2-1.2c0-20.3,0-40.5,0-60.8c-0.9,0.5-1.8,1-2.7,1.5
				c1.8,0,7-1,8.4,0c-1.5-1.1-0.9,1.9-0.9,2.9c0,6.4,0,12.9,0,19.3c0,11.4,0,22.9,0,34.3c0,1,2.7,0.1,3.1-0.1
				c12.1-5.9,25.1,3,26.1,15.4c0.3,4,0,8.1-0.8,12.1c-0.3,1.4-2,6-0.8,5.6c0.9,0,1.8,0.1,2.6,0.1c-2.4-4.2-4.7-6.6-8.9-9.6
				c-0.7-0.5-3.6-0.2-3.7,1c-0.2,3.2-0.5,6.4-1.2,9.6c-0.4,2-2.1,4.6,0,3.9c0.7,0.1,1.4,0.2,2.1,0.3c-1.5-8-36.8-23.6-30.6-30.7
				c1-1.1-2.8-0.8-3.5,0.1c-7.9,9.1,28.7,23.1,30.3,31.7c0.1,0.7,1.8,0.4,2.1,0.3c4.9-1.4,4.3-12,4.5-15.7c-1.2,0.3-2.5,0.7-3.7,1
				c4,2.9,6.3,5.2,8.6,9.2c0.5,0.8,2,0.4,2.6,0.1c2.5-0.9,2.7-5.3,3.1-7.5c1-5.8,1.6-12.3-0.2-18c-4-12.8-20.7-15-31.3-9.8
				c1,0,2-0.1,3.1-0.1c0-19,0-37.9,0-56.9c0-0.4-0.9-0.4-1.1-0.4c-2.9,0-5.7,0-8.6,0c-0.8,0-2.7,0.4-2.7,1.5c0,20.3,0,40.5,0,60.8
				c0.4-0.4,0.8-0.8,1.2-1.2c-3,1.2-5.4,2.6-7.8,4.7C250.3,468.4,254.1,468.1,254.9,467.4z"/>
		</g>
	</g>
	<g>
		<path class="st2" d="M449.7,217.2c-6.1-12.5-19.3-19.4-31.8-17.3c-3.2,0.5-6.3,1.7-9.1,3.3c-0.3-37.2-1.5-73-3.3-107.5
			c0-13.6-5.5-25.9-14.5-34.8c-1.6-1.6-3.2-3-4.9-4.3c-0.3-0.9-0.6-1.9-1-2.8c-5.5-14.6-0.5-27.5-5.7-33.6c-7.1,0.1-30.9,3.8-43,9.7
			c-7.6,3.7-13.4,8.2-17.7,12.1c-13.3-1.2-27.3-2.1-42-2.6c-8.5-2.1-17.9-5-27.7-9.1c-19.5-8.1-34.4-18-44.7-26.1l36.6,32
			c-6-1.8-12.2-4-18.7-6.7c-19.5-8.1-34.4-18-44.7-26.1l41.5,36.3c-10.2,0.4-20.1,1.1-29.7,1.8c-4.4-4.3-10.8-9.7-19.6-14
			c-12.1-5.8-35.9-9.5-43-9.7c-5.2,6.1-0.2,19-5.7,33.6c-0.2,0.6-0.5,1.3-0.7,1.9c-3.5,2.1-6.8,4.6-9.7,7.5
			C96.7,75.1,96.4,92.5,96.3,95.8c-2.9,33.5-4.8,69.4-5.3,107.4c-2.7-1.5-5.7-2.6-8.9-3.2c-12.5-2.1-25.7,4.8-31.8,17.3
			c-4.8,13.7-12.1,40.1-8.3,73.4c3.9,34.1,17.4,58.6,25.3,70.9c8.6-16.5,17.8-37.2,25.4-61.8c0-0.1,0.1-0.3,0.1-0.4
			c0.9,17.2,2,34,3.4,50.1c0,13.6,5.5,25.9,14.5,34.8c14.1,14.1,31.5,14.5,34.8,14.5c33.8,3.5,71.3,5.6,112,5.4
			c35.5-0.2,68.5-2.3,98.6-5.4c13.6,0,25.9-5.5,34.8-14.5c14.1-14.1,14.5-31.5,14.5-34.8c0.9-16,1.6-32.2,2.1-48.8
			c7.5,24.2,16.6,44.6,25.1,60.9c7.9-12.2,21.5-36.8,25.3-70.9C461.8,257.4,454.6,230.9,449.7,217.2z"/>
		<path class="st1" d="M453.8,220.1c-8.7-16.5-31.2-29.2-48.9-19.7c2.7,1.9,5.4,3.9,8,5.8c-0.3-30.2-1.1-60.4-2.5-90.5
			c-0.6-13.1,0-26.7-6-38.8c-2.5-5.1-6-9.8-10.1-13.7c-5.3-5.1-6.9-10.6-7.7-17.9c-0.9-8.5,1.7-18.4-6-24.1
			c-1.9-1.4-3.7-3.2-5.9-3.6c-3.8-0.7-9,0.9-12.7,1.6c-10.3,1.7-21,3.9-30.4,8.6c-5.1,2.5-9.8,5.7-14.2,9.4c-3,2.5-4.4,2-8.4,1.7
			c-4-0.3-8.1-0.6-12.1-0.9c-8.1-0.5-16.9,0-24.9-1.5c-7.1-1.3-14.3-4.1-21.1-6.7c-14.8-5.6-29.8-12.9-42.4-22.7
			c-2.5-2-5.5-3.6-7.9-5.7c10,8.8,20.1,17.5,30.1,26.3c1.6,1.4,4.5,3.1,5.6,4.9c0.1,0.2,0.8,0.5,0.8,0.7c0-0.2-10.8-3.6-11.5-3.8
			c-15.4-5.7-30.9-13.2-43.9-23.2c-2.5-2-5.5-3.6-7.9-5.7c8.9,7.8,17.7,15.5,26.6,23.3c4.1,3.6,10.2,7.3,13.5,11.8
			c0.2,0.2,1.2,0.8,1.2,1.1c0,0.4-3.9,0.4-4.9,0.4c-8.2,0.4-16.4,1-24.6,1.6c2.7,1.9,5.4,3.9,8,5.8c-8.2-8-18.5-15.7-29-20.4
			c-6.4-2.8-13.4-4.6-20.2-6c-5.7-1.2-13.8-3.8-19.7-3c-2.8,0.4-3.3,1.9-4,4.9c-0.7,3.4-0.5,7.1-0.6,10.6c-0.1,3.6-0.3,7.3-1,10.9
			c-0.4,2.2-0.9,5.1-2,7.1c-1.5,2.7-3.3,3.5-5.8,5.4c-11.4,8.8-17.9,22.2-19,36.4c-1.3,17.3-2.6,34.7-3.5,52
			c-0.5,9.1-0.9,18.1-1.2,27.2c-0.2,5.1-0.3,10.1-0.4,15.2c-0.1,2.6-0.1,5.1-0.2,7.7c0,1.7-0.1,3.4-0.1,5.2c0.7,2.9,0,3.4-2.1,1.5
			c-2-0.1-4.7-1.8-6.8-2.1c-1.8-0.3-3.6-0.4-5.4-0.4c-3.6,0.1-7.2,0.9-10.5,2.4c-7.2,3.1-13.4,9.1-16.3,16.4
			c-4.9,12.3-7.2,26.3-8.4,39.4c-3.2,36.4,6.1,73.1,25.8,103.8c0.6,0.9,8.2,5.4,8,5.8c10.3-19.9,19-40.7,25.5-62.2
			c-2.7-1.9-5.4-3.9-8-5.8c1,18.7,1.4,37.9,3.8,56.4c1.8,13.7,9.3,25.5,20.2,33.7c8.5,6.4,17,12,27.6,14.1
			c11.9,2.3,24.7,2.5,36.8,3.4c36.5,2.8,73.2,3.6,109.8,2.4c17.6-0.6,35.3-1.6,52.8-3c16.1-1.3,33.4-0.8,47.3-10
			c12.3-8.2,20.3-21.6,21.9-36.2c2-17.7,1.8-35.9,2.4-53.6c-2.7-1.9-5.4-3.9-8-5.8c6.6,21,14.9,41.3,25.1,60.9
			c0.5,0.9,8.2,5.5,8,5.8C464.1,321.7,470.5,268.1,453.8,220.1c-0.9-2.6-7.2-3.3-8-5.8c16.7,47.9,10.4,101.6-17,144.3
			c2.7,1.9,5.4,3.9,8,5.8c-10.1-19.5-18.5-39.9-25.1-60.9c-0.6-1.9-8.1-4-8-5.8c-0.6,16.6-1.2,33.2-2.1,49.8
			c-0.6,10.4-3.8,20.5-10.1,28.8c-8.6,11.3-21.8,18.4-36,19.3c-15.6,1-31.2,2.7-46.8,3.7c-35,2.1-70.1,2.4-105.2,0.9
			c-15.5-0.7-31-1.7-46.5-3c-9.9-0.9-20.7-0.8-30.2-3.9c-7.5-2.4-12.4-6-17-12.3c-4.4-6-7.3-13-8.6-20.4c-1.6-9.1-1.6-18.8-2.3-28
			c-0.7-10.1-1.3-20.3-1.9-30.5c-0.1-1.5-8.4-4.6-8-5.8c-6.5,21.5-15.1,42.3-25.5,62.2c2.7,1.9,5.4,3.9,8,5.8
			c-22.3-34.7-31-77.1-23.9-117.8c3-17.2,7.1-37.4,26.3-43c4.4-1.3,9.1-1.5,13.6-0.5c0.6,0.1,7.4,3.1,7.7,2.9
			c0.9-0.5,0.2-10.1,0.2-11.6c0.3-13.4,0.7-26.7,1.4-40.1c1-20.6,1.2-41.8,4.2-62.2c1.3-9.1,5.1-17.8,11-24.9
			c3.5-4.2,8.1-6.6,11.8-10.3c3.8-3.8,4.1-12.1,4.4-17.3c0.2-4.5-0.2-9.2,0.7-13.7c1-4.8,2.4-5.1,6.8-4.7c8.7,0.9,17.4,2.6,25.8,4.9
			c4.3,1.2,8.5,2.5,12.6,4.5c1.4,0.7,10.4,6.3,6.5,3.5c-3.6-2.6,0.9,0.8,2,1.9c1,0.9,2,2,3,2.8c1.7,1.5,3.7,2.7,5.5,4
			c3.8,2.7,7.6,1.3,12.2,1c1.9-0.1,19.9-1.4,20-1.1c-0.1-0.5-2.2-1.9-2.5-2.2c-4.6-4-9.2-8-13.8-12c-8.4-7.3-16.8-14.7-25.2-22
			c-2.6-1.9-5.3-3.8-7.9-5.7C183.2,8,193,15,203.3,21.1c8.5,5,17.5,9.3,26.7,12.9c1.5,0.6,14.8,4.2,15.1,5.2c-0.1-0.3-1-0.8-1.2-1
			c-2-2.5-5.3-4.6-7.7-6.8c-4.1-3.6-8.2-7.2-12.3-10.8c-5.1-4.5-10.2-8.9-15.3-13.4c-2.6-1.9-5.3-3.8-7.9-5.7
			c25.3,19.6,56.5,39.8,89.3,41.3c5.4,0.3,10.8,0.6,16.2,0.9c4.8,0.3,11,2,15.6,1.2c3.2-0.6,6.7-4.6,9.6-6.6
			c3.6-2.4,7.3-4.6,11.3-6.3c12.4-5.3,27.5-8.3,41-8.8c-2.7-1.9-5.4-3.9-8-5.8c3.6,5,2.6,11.8,2.8,17.6c0.2,5.8,0.7,13.9,4,18.9
			c2.3,3.4,6.7,6,9.3,9.4c2.2,2.9,4.1,6.1,5.6,9.5c3.1,6.8,4,13.9,4.4,21.3c1.5,35.4,2.9,70.8,3.2,106.3c0,0.6,7.8,5.9,8,5.8
			c6.2-3.3,12.9-4.5,19.8-3c7.1,1.6,9.3,4.2,13,11.2C447.1,217,452.4,217.6,453.8,220.1z"/>
	</g>
	<g>
		<path id="XMLID_1554_" class="st3" d="M240.9,123.6c12.5,33.5,20.1,102.2-31.5,134.2c-45.8,28.3-105.9,14.2-134.2-31.5
			C43.6,175.4,78.1,117.4,106.7,92c6.6-5.9,42.7-38,82.5-25.8C223.3,76.6,236.7,112.3,240.9,123.6z"/>
		<path class="st1" d="M236.9,123.6c11.3,30.6,13.7,67.8,0.1,98c-18.5,41.1-68.4,60.1-110,44.3c-19.8-7.6-36.8-21.6-48-39.6
			c-12.7-20.5-15.3-44.9-9.3-68.1c9-34.9,34-66.7,65.8-83.7c13.3-7.1,28.9-12.4,44-9.5c12.1,2.3,23.2,8.7,32.1,17.2
			C223.5,93.5,231.2,108.3,236.9,123.6c0.5,1.4,7.8-0.3,7.9,0c-5.7-15.3-13.4-30.1-25.2-41.5c-15.5-15-36-20.5-57.2-18.6
			c-39.4,3.6-73.2,35.2-90.7,69c-11.9,23.2-17.3,50.4-9,75.7c7.5,22.9,25.1,42.2,46.3,53.3c36.8,19.2,87.9,14.8,118.3-14.5
			c32.2-31.1,32.1-83.8,17.5-123.3C244.3,122.2,237,123.8,236.9,123.6z"/>
	</g>
	<g>
		<path id="XMLID_1553_" class="st3" d="M264.3,127.6c-12.5,33.5-20.1,102.2,31.5,134.2c45.8,28.3,105.9,14.2,134.2-31.5
			c31.5-50.9-2.9-108.8-31.5-134.2c-6.6-5.9-42.7-38-82.5-25.8C281.9,80.6,268.5,116.4,264.3,127.6z"/>
		<path class="st1" d="M260.3,127.6c-12.7,34.3-14.4,77.9,6.1,109.6c24.1,37.2,75.5,48.6,115.9,34.5c21.3-7.4,39.7-21.9,51.6-41.1
			c14.3-23.1,15.7-50.6,7.2-76c-12.3-37-42.5-71-80-83.7c-23.7-8-50.6-5.4-70.4,10.5C276,93.3,266.9,110.2,260.3,127.6
			c-0.3,0.7,7.2,2,7.9,0c5.1-13.5,11.5-26.4,21.2-37.2c16.6-18.5,40.2-26.1,64.3-18.5c34.5,10.9,62.7,41.7,76.3,74.4
			c9,21.5,11.7,45.7,3.8,68c-7.5,21.1-23.8,39.1-43.4,49.8c-38.4,20.9-89.6,11.4-115-25.4c-21.8-31.5-20-76.3-7.2-111
			C268.6,126.9,261.1,125.6,260.3,127.6z"/>
	</g>
	<g>
		<path id="XMLID_1552_" class="st3" d="M250.7,272.8c-55.3,0-104.4,93-92.4,127c0.1,0.4,0.3,0.7,0.4,1.1c28.9,2.5,60.4,3.9,94,3.7
			c0.1,0,0.3,0,0.4,0c0.3-0.1,0.5-0.1,0.6-0.1c0.2,0,0.5,0,0.9,0.1c31.4-0.3,60.8-1.9,87.9-4.5c0.2-0.5,0.4-1.1,0.6-1.6
			C355.2,364.6,306.2,272.8,250.7,272.8z"/>
		<path class="st1" d="M252,272c-23.2,0.3-43.4,14.2-58.5,30.8c-17.1,18.8-30.6,42.5-36.5,67.3c-2.4,10-4,21.4-0.1,31.2
			c0.1,0.1,0.2,0.2,0.3,0.2c61.4,5.2,123.1,4.9,184.5-0.8c0.6-0.1,2.4-0.4,2.7-1.1c4.4-11.1,2.4-23.8-0.7-35
			c-4.2-15.2-11.3-29.8-20-42.9C307.8,297.5,283,272.5,252,272c-0.8,0-4.3,1.4-2.5,1.5c31.4,0.4,56.6,27.3,72.1,52
			c7.9,12.5,14.3,26,18.2,40.3c3.1,11.1,5.2,23.7,0.8,34.7c0.9-0.4,1.8-0.7,2.7-1.1c-29.5,2.7-59.1,4.1-88.8,4.4
			c-15.2,0.2-30.5-0.1-45.7-0.6c-6.8-0.3-13.5-0.6-20.3-1c-7.7-0.4-16.2-0.2-23.8-1.6c-5.2-1-5.4-2.8-6-7.6
			c-0.5-3.6-0.4-7.2-0.1-10.7c0.7-8.2,2.7-16.2,5.4-24c6.2-18.1,15.9-35.1,27.9-49.9c14.1-17.3,34-34.5,57.6-34.8
			C250.2,273.5,253.8,272,252,272z"/>
	</g>
	<g class="st4">
		<ellipse id="XMLID_1551_" class="st5" cx="162.9" cy="171.6" rx="25.6" ry="43.2"/>
		<g class="st6">
			<g class="st6">
				<path class="st7" d="M184.3,191.2l0.4-1.1c-0.3,0-0.6-0.3-0.8-0.7c-0.1-1.4-1.2,2.7-3.2,6.9
					C181.2,196.8,182.4,195.7,184.3,191.2z"/>
				<path class="st8" d="M193.7,173.4c-0.1-0.6-0.2-1.2-0.3-1.8c0,0.1-0.1,0.1-0.1,0.2C193.5,172.3,193.6,172.9,193.7,173.4z"/>
				<path class="st7" d="M188.8,178c-0.2,1.5-0.3,2.8-0.5,3.9c-0.1,1.1-0.2,2.2-0.4,3.3c0.6-1.2,1-2.1,1.5-2.7
					c0.5-0.8,1.2-2,1.6-3.4c0-1,0-2.5,0.1-3.8c-0.2,0.7-0.2,0.7-0.1,1.6c0-0.5,0-1.2-0.1-1.8c0-0.6-0.1-1.1-0.1-1.1
					c-0.2,0.2-0.4,1.3-0.6,2.6c-0.2,1.3-0.4,2.9-0.5,4.2c0-1.5,0-3.7-0.1-5.4c-0.1,0.5-0.3,0.9-0.5,1.5c-0.1,0.7-0.2,1.3-0.3,1.9
					L188.8,178z"/>
				<path class="st7" d="M172.2,202.5c0.2-0.1,0.3-0.2,0.5-0.4c0.3-0.7,0.7-1.4,1.1-2.3l-0.8,0.7l-0.8,0.6c-0.2,0.4-0.4,0.8-0.7,1.2
					l-0.3,0c0-0.1,0-0.3,0.2-0.6l-0.1,0c-0.3,0.3-0.6,0.4-0.9,0.6l0.4,0c-0.4,0.4-0.8,0.7-1.1,1c-0.3,0.3-0.5,0.5-0.5,0.7
					C169.6,204.2,171,203.3,172.2,202.5z"/>
				<path class="st9" d="M159.2,205.7c-0.1,0.4-0.3,0.7-0.7,1c0.6,0.1,1.1,0.5,1.7,0.8c0.6,0.2,1.2,0.6,1.7,0.4
					c-0.7,0.9,0.9,2.1,3.6,2.1c2.6,0.1,5.9-1.5,7.2-1.9c1.7-0.5,3.7-2.1,5.7-4.1c1.9-2,3.6-4.3,5-6.2c0.2-0.9-0.1-0.9,0.5-2.6
					c-0.6,0.9-1.2,2-1.7,3.4c-0.1,0.3-0.2,0.5-0.3,0.8c0.1-0.3,0.2-0.5,0.3-0.8c0.3-1,0.7-1.9,1.2-3.1c-0.2,0.4-0.4,0.6-0.4,0.5
					c0-0.2,0.1-0.5,0.2-0.8c-1.2,1.7-2.4,3.3-3.6,4.3c-1.1,1-2.1,1.5-2.7,1.2l-0.7,0.9c-2.9,3.3-4.3,3.6-4.6,3.1
					c-1.8,1.5-3.8,2.8-5.1,2.9c-2.3,0.3-4-0.4-5.3-1.4c-0.3,0-0.6,0.1-0.8,0c-0.3-0.1-0.6-0.1-0.8-0.1
					C159.4,205.9,159.3,205.8,159.2,205.7z"/>
				<path class="st10" d="M189.8,171.6c0.5-0.3,1-1.2,1.5-2.6c0.2-0.7,0.5-1.5,0.7-2.4c0.2-0.9,0.3-2,0.4-3.1
					c0.4-4.5-0.1-10.4-2.2-16.3c-2-6-4.9-12-9.9-17.2c-2.5-2.5-5.5-5-9.3-6.5c-3.8-1.5-8.2-2.1-12.5-1.2c0.6,0.1,1,0.3,1.1,0.5
					c0.1,0.2-0.1,0.5-0.6,0.8c-0.5,0.3-1.2,0.8-2.1,1.2c-0.5,0.2-1,0.6-1.6,0.9c-0.6,0.4-1.2,0.7-1.9,1.1c-0.7,0.5-1.5,1-2.3,1.5
					c-0.8,0.5-1.6,1.2-2.5,1.8c-0.8,0.6-1.4,1.2-2,1.7c-0.5,0.5-0.9,1-1.1,1.3c-2,3-2.8,5-3.6,7.2c-0.8,2.2-1.6,4.5-2.7,8.3
					c0.8-1.2,1.3-1.1,2-2.5c2.3-3.7,4.9-8.3,9.1-13.3c0.7-0.7,1.9-1.4,2.6-1.5c0.7-0.1,0.7,0.2-0.8,1.7c2.1-1.6,4-2.6,5.9-3.4
					c1-0.3,1.9-0.6,2.8-0.8l1.4-0.2l0.7-0.1l0.7,0.1c0.7,0,1.3,0.1,1.9,0.2c0.5,0.2,1,0.3,1.4,0.4c0.4,0.1,0.8,0.2,1.1,0.4
					c0.3,0.2,0.5,0.3,0.7,0.4c0.8,0.5,0.9,0.9,0.7,1.1c-0.3,0.6-1.3,0.9-0.2,2.1c0.3,0.5,0.8,1.1,1.4,1.7c2.9,1.6,5.6,3.9,7.9,6.7
					c2.3,2.8,4.3,5.9,5.9,9.4c0.7,1.6,0.9,4.3,1.4,6c0.9,3.2,1.7,7,2.3,10C188.9,169.9,189.4,172,189.8,171.6z"/>
				<path class="st11" d="M131.3,167.1c-0.1-2.3-0.2-4.7,0.2-7.3c-1,3.8-1.6,7.6-2.1,11.4c0.2,1,0.5,2.1,0.7,3.1
					C130.1,171.3,130.6,168.8,131.3,167.1z"/>
				<path class="st11" d="M163.5,132.7c0.4-0.5,0-0.8-0.7-1.1c-0.4-0.1-0.9-0.2-1.4-0.3c-0.3,0-0.5-0.1-0.8-0.2
					c-0.3,0-0.5,0-0.8-0.1c-4.3,1.8-6.8,3.9-9.4,5.3c0,0.3-1.4,1.8-1.9,2.5c-0.1-0.4-1.6,0.9-0.7-0.6c-0.5,0.7-1,1.5-1.5,2.2
					c-0.2,0.3-0.5,0.7-0.7,1c-0.2,0.3-0.3,0.6-0.3,0.9c-1.6,2.3,0.4-2.3-0.9-0.9c-1.9,4.8-3.5,9-4.7,11.6c-0.7,1.3-1.2,2.2-1.7,2.6
					c-0.4,0.3-0.8,0.1-0.9-0.9c-0.2-0.8-0.1-1.9,0-3c0-1.1,0.1-2.3,0-3.3c-0.3-2,2.3-7,4.7-10.3c-1.1,0.7-4.1,5.8-3.1,2.7
					c0.6-1.5,1.2-3.1,2-4.6c0.4-0.7,0.7-1.5,1-2.1c0.4-0.7,0.7-1.3,0.9-1.8c-3,3.7-5.2,8.2-6.7,12.3c-1.5,4.1-2.4,7.8-3.1,10
					c-0.3,0.9-0.5,1.7-0.8,2.5c-0.3,0.8-0.5,1.7-0.7,2.5c-0.3,2.6-0.3,5.1-0.2,7.3c-0.7,1.7-1.2,4.2-1.2,7.2
					c0.3,1.2,0.6,2.2,0.9,2.7c0.6,1.3,0.6-0.6,0.8-3.2c0-0.6,0.1-1.3,0.1-2c0.1-0.7,0.2-1.4,0.2-2c0.2-1.3,0.4-2.4,0.6-3
					c0,5.4,0.8,8.5,1.5,9.8c0.8,1.3,1.5,0.7,2.1-1c0.4-1.2,0.7-2.5,1-4c0.4-1.5,0.7-3.2,1.2-5.2c0.2-1.1,0.3-2.4,0.5-3.7
					c0.2-1.4,0.3-2.8,0.4-4.1c-0.1,0.9-0.1,3.6,0.1,3c1.3-4.8,2.7-6.6,4.6-12.7c0.2,0.3,0.5-0.2,0.1,1.5c0.4-1.7,0.7-1.9,1.1-2.1
					c0.4-0.2,0.7-0.4,1.2-2c0.7-0.6,1.3-0.5,1.9-0.9c0.7-0.3,1.3-1,2.5-2.8c0.1-0.3,0.3-0.5,0.4-0.7c0.2-0.2,0.3-0.4,0.4-0.6
					c0.3-0.4,0.5-0.7,0.8-1c1.5-2.4,3.6-4.8,6.6-6.1c2.1-0.8,4.2-1.1,6.4-0.8c-0.3-0.1-0.5-0.1-0.8-0.2c-0.2-0.1-0.5-0.1-0.6-0.1
					C163.9,132.9,163.6,132.8,163.5,132.7z"/>
				<path class="st12" d="M169.3,133.3c-1.1-1.2-0.1-1.5,0.2-2.1c0.1-0.3,0-0.6-0.7-1.1c-0.2-0.1-0.4-0.3-0.7-0.4
					c-0.3-0.1-0.7-0.2-1.1-0.4c-0.4-0.1-0.9-0.3-1.4-0.4c-0.6-0.1-1.2-0.1-1.9-0.2l-0.7-0.1l-0.7,0.1l-1.4,0.2
					c-1,0.2-1.9,0.5-2.8,0.8c-1.8,0.8-3.8,1.8-5.9,3.4c1.5-1.5,1.5-1.7,0.8-1.7c-0.7,0.1-1.9,0.9-2.6,1.5c-4.2,5-6.8,9.6-9.1,13.3
					c-0.7,1.4-1.3,1.4-2,2.5c1.1-3.8,1.9-6.1,2.7-8.3c0.8-2.2,1.6-4.2,3.6-7.2c0.1-0.3,0.6-0.7,1.1-1.3c0.6-0.5,1.2-1.2,2-1.7
					c0.8-0.6,1.6-1.2,2.5-1.8c0.9-0.5,1.7-1,2.3-1.5c0.7-0.4,1.3-0.8,1.9-1.1c0.6-0.3,1.1-0.7,1.6-0.9c1-0.5,1.7-0.9,2.1-1.2
					c0.4-0.4,0.6-0.6,0.6-0.8c-0.1-0.2-0.5-0.4-1.1-0.5c-1.5,0.3-3,0.7-4.4,1.3c-0.7,0.3-1.4,0.6-2.1,0.9l-1.9,1.1
					c-1.3,0.7-2.3,1.7-3.5,2.6c-1.1,0.9-2,2-3,3c-0.3,0.4-0.6,0.8-1,1.2c-0.3,0.5-0.6,1.2-0.9,1.8c-0.4,0.6-0.7,1.4-1,2.1
					c-0.8,1.5-1.4,3.1-2,4.6c-1,3.2,1.9-2,3.1-2.7c-2.4,3.4-5,8.4-4.7,10.3c0.1,1,0,2.2,0,3.3c0,1.1-0.1,2.2,0,3
					c0.1,1,0.5,1.3,0.9,0.9c0.4-0.3,1-1.3,1.7-2.6c1.2-2.7,2.9-6.9,4.7-11.6c1.3-1.5-0.8,3.2,0.9,0.9c0.1-0.3,0.2-0.6,0.3-0.9
					c0.2-0.3,0.4-0.6,0.7-1c0.5-0.7,1-1.4,1.5-2.2c-0.9,1.5,0.6,0.3,0.7,0.6c0.4-0.7,1.9-2.3,1.9-2.5c2.7-1.4,5.2-3.5,9.4-5.3
					c0.3,0,0.5,0.1,0.8,0.1c0.3,0,0.5,0.1,0.8,0.2c0.5,0.1,0.9,0.2,1.4,0.3c0.8,0.3,1.1,0.6,0.7,1.1c0.1,0.1,0.3,0.2,0.7,0.3
					c0.2,0,0.4,0,0.6,0.1c0.2,0.1,0.5,0.1,0.8,0.2c1.7,0.1,3.4,0.9,5.1,1.7C170.1,134.4,169.6,133.8,169.3,133.3z"/>
				<path class="st13" d="M151,142.4c-1.1,1.7-1.8,2.4-2.5,2.8c-0.7,0.3-1.3,0.3-1.9,0.9c-0.5,1.6-0.8,1.8-1.2,2
					c-0.4,0.2-0.7,0.4-1.1,2.1c0.4-1.7,0-1.1-0.1-1.5c-1.8,6.1-3.3,7.8-4.6,12.7c-0.2,0.6-0.2-2.1-0.1-3c-0.1,1.3-0.2,2.8-0.4,4.1
					c-0.2,1.4-0.3,2.7-0.5,3.7c-0.5,2-0.8,3.7-1.2,5.2c-0.3,1.5-0.6,2.7-1,4c-0.6,1.8-1.3,2.3-2.1,1c-0.7-1.3-1.5-4.4-1.5-9.8
					c-0.2,0.6-0.4,1.7-0.6,3c-0.1,0.6-0.2,1.3-0.2,2c0,0.7-0.1,1.4-0.1,2c-0.2,2.6-0.2,4.5-0.8,3.2c-0.4-0.5-0.6-1.5-0.9-2.7
					c-0.2,3.6,0.4,7.8,1.3,12c0.9,4.2,2.4,8.4,4,12.1c0.4,0.1,0.6-0.3,0.3-1.5c-0.2-1.1-0.4-2.1-0.5-2.8c-0.1-0.8,0-1.4,0-1.8
					c0.1-1,0.3-1.5,0.6-1.9c0.5-0.9,1.2-1.5,1.2-5c0-0.7-0.1-2-0.1-3.2c-0.1-1.2-0.1-2.3-0.1-2.7c0.7-3.1,2.1,0.2,2.8-2.9
					c0.2,0.2-0.3-4.8,0.1-5.2c0.8-1.7,1.7-0.7,2.1-4.2c0.2-1.2,0.4-2.3,0.6-3.3c0.2-1,0.5-1.9,0.8-2.7c0.5-1.6,1.1-2.9,1.7-4
					c0.5-1.1,1.2-2,1.8-2.8l0.9-1.2l1-1.1c0.9-4.4,1.9-8.3,4.2-12.1c-0.3,0.3-0.5,0.6-0.8,1c-0.1,0.2-0.3,0.4-0.4,0.6
					C151.3,141.9,151.1,142.1,151,142.4z"/>
				<path class="st14" d="M189.3,209.7c0.4-0.6,0.7-1.2,1.1-1.8c0.3-0.6,0.6-1.2,0.9-1.7c0.6-1.1,1.2-2.2,1.6-3.3
					c-2.7,4.8-5.6,8-8.3,10.2c-1.3,1.1-2.7,1.9-3.8,2.6c-1.3,0.6-2.4,1.1-3.5,1.4c-0.3,0.1-1.6,0.8-3.4,1.8
					c-0.9,0.4-2.1,0.9-3.2,1.4c-1.2,0.4-2.6,0.7-3.9,1c-1.4,0.1-2.8,0.3-4.1,0.2c-1.3-0.1-2.6-0.3-3.7-0.5c-1.1-0.3-2-0.7-2.7-1
					c-0.7-0.3-1.2-0.7-1.4-1c0.2-0.1,0.6,0,1,0.1c0.6,0.1,1.2,0.2,1.9,0.3c1.5,0.3,3.5,0.4,5.7,0.3c-1,0-2-0.3-2.9-0.5
					c-0.9-0.1-1.7-0.5-2.4-0.8c-0.7-0.3-1.4-0.6-2-1c-0.6-0.4-1.1-0.7-1.6-1.1c-1-0.6-1.6-1.5-2.2-2.1c-0.3-0.4-0.6-0.7-0.8-1
					c-0.2-0.4-0.4-0.7-0.6-1c-0.4-0.7-0.8-1.3-1.1-2c-0.3-0.7-0.6-1.4-1-2.1c-0.4-0.7-0.7-1.6-1.1-2.4c-0.4-0.8-0.8-1.8-1.3-2.9
					c-1.9-4.4-2.4-8.8-2.4-12c0.1-1.7,0.3-3,0.6-4.1c0.4-1.1,0.8-1.8,1.4-2.1c0.9-0.4,0.4-6.2,1.1-10.9c-0.4-1.8-0.5-3.7-0.7-5.5
					c-0.3,1.3-0.7,2.5-1,3.5c-0.3,1-0.6,1.7-0.9,2c-1.1,0.8-2.1,2.3-2.6,4.8c-0.6,2.5-0.8,6.2,0,11.4c0.5,3.4-2.1,1.5-1.8,3.5
					c0.1,1,0.2,1.9,0.2,2.8c0.1,0.9,0.2,1.7,0.3,2.6c0.2,1.7,0.5,3.1,0.7,4.6c0.2,1.5,0.6,2.8,1,4.3c0.4,1.4,0.9,2.8,1.5,4.4
					c0.2,0.6,0.7,1.5,1.4,2.7c0.6,1.1,1.8,2.4,3,3.7c2.7,1.8,5.6,3.5,9.1,4.3c1.7,0.5,3.5,0.6,5.3,0.8c0.9,0.1,1.8,0,2.7-0.1
					c0.9-0.1,1.8-0.1,2.7-0.3c1.2-0.3,2.4-0.6,3.4-1c1-0.4,1.9-0.8,2.7-1.1c1.6-0.7,2.8-1.4,3.9-2c1-0.6,1.8-1.1,2.5-1.4
					c0.7-0.4,1.4-0.7,1.9-1c1.1-0.6,2-1.1,3.2-2c0.5-0.5,1.1-1.1,1.8-1.8c0.3-0.4,0.7-0.8,1-1.3
					C188.6,210.8,188.9,210.3,189.3,209.7z"/>
				<path class="st15" d="M141.7,167.2c-0.4,3.5-1.3,2.6-2.1,4.2c-0.4,0.4,0.1,5.4-0.1,5.2c-0.7,3-2.1-0.3-2.8,2.9
					c-0.1,0.3,0,1.5,0.1,2.7c0.1,1.2,0.1,2.5,0.1,3.2c0,3.4-0.7,4.1-1.2,5c-0.3,0.4-0.5,0.9-0.6,1.9c0,0.5-0.1,1.1,0,1.8
					c0.1,0.8,0.2,1.7,0.5,2.8c0.3,1.2,0.1,1.5-0.3,1.5c0,0,0,0,0,0.1c-1.2-0.9,0.8,3.8,1.5,5c0.8,1.4,1.4,2.7,2.1,3.8
					c0.7,1.1,1.2,2.1,1.9,3c0.7,0.9,1.2,1.8,1.9,2.8c0.8,0.9,1.5,1.9,2.6,3c0.9,0.8,1.8,1.5,2.7,2.3c-1.2-1.4-2.3-2.6-3-3.7
					c-0.7-1.1-1.2-2-1.4-2.7c-0.6-1.6-1.1-3-1.5-4.4c-0.3-1.4-0.7-2.8-1-4.3c-0.2-1.5-0.5-2.9-0.7-4.6c-0.1-0.8-0.2-1.7-0.3-2.6
					c-0.1-0.9-0.2-1.9-0.2-2.8c-0.2-2,2.3-0.1,1.8-3.5c-0.8-5.2-0.6-8.9,0-11.4c0.6-2.5,1.5-3.9,2.6-4.8c0.3-0.3,0.6-1.1,0.9-2
					c0.3-1,0.7-2.2,1-3.5c-0.1-1.6-0.2-3.1-0.1-4.6c0-0.8,0.3-1.7,0.5-2.5c0.1-0.4,0.2-0.7,0.3-0.9c0.1-0.2,0.2-0.4,0.2-0.4
					c0.2-1.3,0.3-2.6,0.6-3.8c0.2-1.2,0.4-2.4,0.6-3.5l-1,1.1l-0.9,1.2c-0.6,0.8-1.3,1.7-1.8,2.8c-0.6,1.1-1.2,2.4-1.7,4
					c-0.2,0.8-0.6,1.7-0.8,2.7C142.1,164.9,141.9,166,141.7,167.2z"/>
				<path class="st16" d="M195.9,195.4c0.3-1.4,0.6-3,1-4.3c0.7-3.9,1.1-3.2,1.5-5c0,0-0.1,0.2-0.1,0.4c-0.1,0.2-0.2,0.4-0.2,0.4
					c0.1-0.4,0.2-0.8,0.3-1.2c-0.9,1.7-1.8,2.6-2.4,2.4c-0.5,2.3-1.1,4.1-1.7,4.9c-0.5,0.6-0.9,1.2-1.3,1.8l-1.4,1.6
					c-1,1.2-2.1,2.4-3.1,3.6c-0.6,0.7-1.2,1.5-1.9,2.3c-0.7,0.8-1.4,1.8-2.3,2.8c-0.9,1-1.8,2.2-3,3.3c-1.1,1.2-2.5,2.5-4.1,3.8
					c-2.8,2-2.9,1.2-3.4,0.6c-0.2-0.3-0.6-0.6-1.3-0.6c-0.4,0-0.9,0.1-1.5,0.3c-0.6,0.2-1.4,0.3-2.4,0.6c-1.3,0.4-3.3,0.7-5,0.6
					c-1.7-0.2-3.1-0.6-3.4-1.1c-0.1-0.6,0.8-0.9,1.1-1.4c0.2-0.3,0.2-0.5-0.1-0.8c-0.3-0.3-0.8-0.6-1.7-1.1
					c-2.3-1.2-4.2-3.2-5.5-5.3c-0.4-0.5-0.7-1.1-0.9-1.6c-0.3-0.6-0.6-1-0.8-1.6c-0.2-0.5-0.4-1.1-0.6-1.6l-0.3-0.8l-0.2-0.8
					c-0.5-2-0.6-3.8-0.6-5.2c0.1-1.4,0.4-2.4,0.9-3c-1.2-4.4-3.1-9.9-4.1-15.9c-0.7,4.7-0.2,10.5-1.1,10.9c-0.5,0.3-1,1-1.4,2.1
					c-0.4,1.1-0.5,2.4-0.6,4.1c-0.1,3.3,0.5,7.6,2.4,12c0.5,1.1,0.9,2.1,1.3,2.9c0.4,0.9,0.7,1.7,1.1,2.4c0.4,0.7,0.7,1.4,1,2.1
					c0.3,0.7,0.7,1.3,1.1,2c0.2,0.3,0.4,0.7,0.6,1c0.2,0.4,0.5,0.7,0.8,1c0.6,0.7,1.3,1.5,2.2,2.1c0.5,0.3,1,0.7,1.6,1.1
					c0.6,0.4,1.3,0.6,2,1c0.7,0.3,1.5,0.7,2.4,0.8c0.9,0.2,1.9,0.4,2.9,0.5c-2.2,0.1-4.2,0-5.7-0.3c-0.7-0.1-1.3-0.2-1.9-0.3
					c-0.5-0.1-0.8-0.1-1-0.1c0.2,0.3,0.7,0.7,1.4,1c0.7,0.3,1.7,0.7,2.7,1c1.1,0.3,2.4,0.4,3.7,0.5c1.3,0,2.8-0.1,4.1-0.2
					c1.3-0.3,2.7-0.6,3.9-1c1.2-0.5,2.3-0.9,3.2-1.4c1.7-1,3-1.7,3.4-1.8c1.1-0.4,2.3-0.8,3.5-1.4c1.1-0.7,2.5-1.5,3.8-2.6
					c2.7-2.2,5.5-5.4,8.3-10.2c0.6-1.3,1.2-2.6,1.6-3.8C195,197.8,195.5,196.6,195.9,195.4z"/>
				<path class="st17" d="M159.2,209.3c0.9,0.4,1.4,0.8,1.7,1.1c0.3,0.3,0.2,0.5,0.1,0.8c-0.3,0.5-1.2,0.8-1.1,1.4
					c0.2,0.5,1.7,0.9,3.4,1.1c1.7,0.1,3.7-0.3,5-0.6c1-0.3,1.8-0.4,2.4-0.6c0.6-0.2,1.1-0.3,1.5-0.3c0.8,0,1.1,0.2,1.3,0.6
					c0.5,0.6,0.7,1.4,3.4-0.6c1.6-1.3,3-2.5,4.1-3.8c1.2-1.2,2.1-2.3,3-3.3c0.9-1,1.6-2,2.3-2.8c0.7-0.8,1.3-1.6,1.9-2.3
					c1.1-1.2,2.1-2.4,3.1-3.6l1.4-1.6c0.5-0.6,0.9-1.1,1.3-1.8c0.5-0.7,1.2-2.6,1.7-4.9c-0.2-0.1-0.5-0.4-0.6-0.9
					c-0.2-0.3-0.8,1.1-1.5,2.9c-0.8,1.8-1.7,3.9-2.5,5.2c-0.8,0.6-1,0-1-1.2c0-1.2,0.1-3.1,0.3-4.9c0-0.6,0-1.1-0.1-1.7
					c0-0.1,0.1-0.1,0.1-0.2c0-0.5,0-0.9,0-1.4c-0.5,1.1-1,2.2-1.4,3.2c-0.1,0.4-0.2,0.8-0.4,1.2c0-0.2,0.1-0.4,0.1-0.7
					c-0.8,1.3-1.5,2.4-2.1,3.1c-0.6,0.5-1.3,1.4-2,2.4c-0.2,0.5-0.4,1.1-0.6,1.6c0.2-0.5,0.3-0.9,0.4-1.2c-0.6,1-1.4,2.1-2.1,3.2
					c-0.8,1.1-1.6,2.3-2.5,3.3c-0.9,1-1.8,2.1-2.7,2.8c-0.5,0.4-0.9,0.8-1.3,1.1c-0.4,0.3-0.9,0.5-1.3,0.7c-1.3,0.6-4.4,2.6-7.2,3
					c-0.3,0.1-0.7,0.1-1,0.2c-0.3,0-0.6,0-0.9,0c-0.6,0-1-0.1-1.4-0.3c-0.7-0.3-1-0.7-0.8-1.3c-0.5,0.2-1.2,0-1.8-0.1
					c-0.3,0-0.6-0.2-0.9-0.3c-0.3-0.1-0.6-0.2-0.9-0.2c0.4-0.3,0.5-0.7,0.5-1.1c-0.4-0.4-0.8-0.7-1.2-1.1c-0.3-0.4-0.6-0.8-0.6-1
					c0.2-0.1,0.4,0,0.7,0.2c0.3,0.2,0.6,0.3,0.9,0.5l-0.1-0.3l-0.2-0.2c-0.4-0.1-0.9-0.4-1.3-0.5c-0.6,0-1.3-0.2-1.9-0.3
					c0.2-0.1,0.5,0,0.8,0c0.2,0,0.3,0.1,0.5,0.2c0.2,0,0.4,0.1,0.6,0.1c0.3,0,0.6,0,0.8,0c-0.7-0.8-1.5-1.7-2.3-2.9
					c-0.2-0.2-0.5-0.4-0.7-0.5c0.2,0.1,0.4,0.3,0.6,0.4l-0.3-0.5c-0.1-0.1-0.3-0.2-0.4-0.3c-0.1-0.1-0.3-0.3-0.5-0.4
					c-0.3-0.3-0.7-0.6-1.1-1c-0.8-0.9-1.7-1.8-2.6-3c0-0.5,0-1-0.1-1.5c0-0.5-0.1-1.1-0.2-1.6c-0.2-1.1-0.4-2.3-0.8-3.4
					c-0.5,0.5-0.8,1.5-0.9,3c0,1.4,0.1,3.2,0.6,5.2l0.2,0.8l0.3,0.8c0.2,0.5,0.4,1.1,0.6,1.6c0.2,0.6,0.5,1,0.8,1.6
					c0.3,0.6,0.6,1.1,0.9,1.6C155,206.1,156.9,208.1,159.2,209.3z"/>
			</g>
		</g>
	</g>
	<g>
		<path id="XMLID_1550_" class="st18" d="M173.6,170.7c-5.1,0-9.2-6.8-9.2-15.1c0-3.6,0.8-6.8,2-9.4c-1.3-0.5-2.7-0.8-4.1-0.8
			c-9.3,0-16.8,12.3-16.8,27.6c0,15.2,7.5,27.6,16.8,27.6s16.8-12.3,16.8-27.6c0-1.6-0.1-3.2-0.3-4.8
			C177.3,169.7,175.5,170.7,173.6,170.7z"/>
		<path class="st19" d="M174.3,169.6c-10-1.1-8.6-17.6-6-23.7c0.2-0.5-0.4-0.7-0.8-0.8c-9.6-3-17.3,3.6-20.9,12.1
			c-4.8,11.2-4.4,26.3,2.4,36.6c4.7,7.1,13.2,10.1,20.7,5.2c10-6.5,11.9-20.7,11-31.5c-0.1-1.3-3-0.3-3.5,0.2
			c-1.1,0.6-2.3,1.3-3.4,1.9c-1.8,0.3-3.1,2.6-0.5,2.2c3-0.5,4.8-1.4,7-3.4c-1.2,0.1-2.3,0.1-3.5,0.2c0.7,8.7-2.4,35.4-17.1,30.1
			c-11.2-4-13.2-21.4-12.1-31.3c0.6-5.4,2.2-10.8,5.4-15.3c1.8-2.6,5.8-6.9,9.2-4.8c2.3,1.4,1,2.1,0.6,4.4c-0.2,1.4-0.3,2.7-0.3,4.1
			c0,6.8,2.7,15.2,10.4,16C174.3,172,176.9,169.9,174.3,169.6z"/>
	</g>
	<g class="st4">
		<ellipse id="XMLID_1548_" class="st5" cx="339.4" cy="174.3" rx="25.6" ry="43.2"/>
		<g class="st6">
			<g class="st6">
				<path class="st7" d="M360.8,193.9l0.4-1.1c-0.3,0-0.6-0.3-0.8-0.7c-0.1-1.4-1.2,2.7-3.2,6.9
					C357.6,199.5,358.9,198.4,360.8,193.9z"/>
				<path class="st8" d="M370.2,176.1c-0.1-0.6-0.2-1.2-0.3-1.8c0,0.1-0.1,0.1-0.1,0.2C370,175.1,370.1,175.6,370.2,176.1z"/>
				<path class="st7" d="M365.2,180.8c-0.2,1.5-0.3,2.8-0.5,3.9c-0.1,1.1-0.2,2.2-0.4,3.3c0.6-1.2,1-2.1,1.5-2.7
					c0.5-0.8,1.2-2,1.6-3.4c0-1,0-2.5,0.1-3.8c-0.2,0.7-0.2,0.7-0.1,1.6c0-0.5,0-1.2-0.1-1.8c0-0.6-0.1-1.1-0.1-1.1
					c-0.2,0.2-0.4,1.3-0.6,2.6c-0.2,1.3-0.4,2.9-0.5,4.2c0-1.5,0-3.7-0.1-5.4c-0.1,0.5-0.3,0.9-0.5,1.5c-0.1,0.7-0.2,1.3-0.3,1.9
					L365.2,180.8z"/>
				<path class="st7" d="M348.7,205.2c0.2-0.1,0.3-0.2,0.5-0.4c0.3-0.7,0.7-1.4,1.1-2.3l-0.8,0.7l-0.8,0.6c-0.2,0.4-0.4,0.8-0.7,1.2
					l-0.3,0c0-0.1,0-0.3,0.2-0.6l-0.1,0c-0.3,0.3-0.6,0.4-0.9,0.6l0.4,0c-0.4,0.4-0.8,0.7-1.1,1c-0.3,0.3-0.5,0.5-0.5,0.7
					C346.1,207,347.4,206.1,348.7,205.2z"/>
				<path class="st9" d="M335.6,208.5c-0.1,0.4-0.3,0.7-0.7,1c0.6,0.1,1.1,0.5,1.7,0.8c0.6,0.2,1.2,0.6,1.7,0.4
					c-0.7,0.9,0.9,2.1,3.6,2.1c2.6,0.1,5.9-1.5,7.2-1.9c1.7-0.5,3.7-2.1,5.7-4.1c1.9-2,3.6-4.3,5-6.2c0.2-0.9-0.1-0.9,0.5-2.6
					c-0.6,0.9-1.2,2-1.7,3.4c-0.1,0.3-0.2,0.5-0.3,0.8c0.1-0.3,0.2-0.5,0.3-0.8c0.3-1,0.7-1.9,1.2-3.1c-0.2,0.4-0.4,0.6-0.4,0.5
					c0-0.2,0.1-0.5,0.2-0.8c-1.2,1.7-2.4,3.3-3.6,4.3c-1.1,1-2.1,1.5-2.7,1.2l-0.7,0.9c-2.9,3.3-4.3,3.6-4.6,3.1
					c-1.8,1.5-3.8,2.8-5.1,2.9c-2.3,0.3-4-0.4-5.3-1.4c-0.3,0-0.6,0.1-0.8,0c-0.3-0.1-0.6-0.1-0.8-0.1
					C335.8,208.7,335.7,208.6,335.6,208.5z"/>
				<path class="st10" d="M366.2,174.3c0.5-0.3,1-1.2,1.5-2.6c0.2-0.7,0.5-1.5,0.7-2.4c0.2-0.9,0.3-2,0.4-3.1
					c0.4-4.5-0.1-10.4-2.2-16.3c-2-6-4.9-12-9.9-17.2c-2.5-2.5-5.5-5-9.3-6.5c-3.8-1.5-8.2-2.1-12.5-1.2c0.6,0.1,1,0.3,1.1,0.5
					c0.1,0.2-0.1,0.5-0.6,0.8c-0.5,0.3-1.2,0.8-2.1,1.2c-0.5,0.2-1,0.6-1.6,0.9c-0.6,0.4-1.2,0.7-1.9,1.1c-0.7,0.5-1.5,1-2.3,1.5
					c-0.8,0.5-1.6,1.2-2.5,1.8c-0.8,0.6-1.4,1.2-2,1.7c-0.5,0.5-0.9,1-1.1,1.3c-2,3-2.8,5-3.6,7.2c-0.8,2.2-1.6,4.5-2.7,8.3
					c0.8-1.2,1.3-1.1,2-2.5c2.3-3.7,4.9-8.3,9.1-13.3c0.7-0.7,1.9-1.4,2.6-1.5c0.7-0.1,0.7,0.2-0.8,1.7c2.1-1.6,4-2.6,5.9-3.4
					c1-0.3,1.9-0.6,2.8-0.8l1.4-0.2l0.7-0.1l0.7,0.1c0.7,0,1.3,0.1,1.9,0.2c0.5,0.2,1,0.3,1.4,0.4c0.4,0.1,0.8,0.2,1.1,0.4
					c0.3,0.2,0.5,0.3,0.7,0.4c0.8,0.5,0.9,0.9,0.7,1.1c-0.3,0.6-1.3,0.9-0.2,2.1c0.3,0.5,0.8,1.1,1.4,1.7c2.9,1.6,5.6,3.9,7.9,6.7
					c2.3,2.8,4.3,5.9,5.9,9.4c0.7,1.6,0.9,4.3,1.4,6c0.9,3.2,1.7,7,2.3,10C365.3,172.6,365.8,174.7,366.2,174.3z"/>
				<path class="st11" d="M307.7,169.8c-0.1-2.3-0.2-4.7,0.2-7.3c-1,3.8-1.6,7.6-2.1,11.4c0.2,1,0.5,2.1,0.7,3.1
					C306.5,174,307.1,171.5,307.7,169.8z"/>
				<path class="st11" d="M340,135.4c0.4-0.5,0-0.8-0.7-1.1c-0.4-0.1-0.9-0.2-1.4-0.3c-0.3,0-0.5-0.1-0.8-0.2c-0.3,0-0.5,0-0.8-0.1
					c-4.3,1.8-6.8,3.9-9.4,5.3c0,0.3-1.4,1.8-1.9,2.5c-0.1-0.4-1.6,0.9-0.7-0.6c-0.5,0.7-1,1.5-1.5,2.2c-0.2,0.3-0.5,0.7-0.7,1
					c-0.2,0.3-0.3,0.6-0.3,0.9c-1.6,2.3,0.4-2.3-0.9-0.9c-1.9,4.8-3.5,9-4.7,11.6c-0.7,1.3-1.2,2.2-1.7,2.6
					c-0.4,0.3-0.8,0.1-0.9-0.9c-0.2-0.8-0.1-1.9,0-3c0-1.1,0.1-2.3,0-3.3c-0.3-2,2.3-7,4.7-10.3c-1.1,0.7-4.1,5.8-3.1,2.7
					c0.6-1.5,1.2-3.1,2-4.6c0.4-0.7,0.7-1.5,1-2.1c0.4-0.7,0.7-1.3,0.9-1.8c-3,3.7-5.2,8.2-6.7,12.3c-1.5,4.1-2.4,7.8-3.1,10
					c-0.3,0.9-0.5,1.7-0.8,2.5c-0.3,0.8-0.5,1.7-0.7,2.5c-0.3,2.6-0.3,5.1-0.2,7.3c-0.7,1.7-1.2,4.2-1.2,7.2
					c0.3,1.2,0.6,2.2,0.9,2.7c0.6,1.3,0.6-0.6,0.8-3.2c0-0.6,0.1-1.3,0.1-2c0.1-0.7,0.2-1.4,0.2-2c0.2-1.3,0.4-2.4,0.6-3
					c0,5.4,0.8,8.5,1.5,9.8c0.8,1.3,1.5,0.7,2.1-1c0.4-1.2,0.7-2.5,1-4c0.4-1.5,0.7-3.2,1.2-5.2c0.2-1.1,0.3-2.4,0.5-3.7
					c0.2-1.4,0.3-2.8,0.4-4.1c-0.1,0.9-0.1,3.6,0.1,3c1.3-4.8,2.7-6.6,4.6-12.7c0.2,0.3,0.5-0.2,0.1,1.5c0.4-1.7,0.7-1.9,1.1-2.1
					c0.4-0.2,0.7-0.4,1.2-2c0.7-0.6,1.3-0.5,1.9-0.9c0.7-0.3,1.3-1,2.5-2.8c0.1-0.3,0.3-0.5,0.4-0.7c0.2-0.2,0.3-0.4,0.4-0.6
					c0.3-0.4,0.5-0.7,0.8-1c1.5-2.4,3.6-4.8,6.6-6.1c2.1-0.8,4.2-1.1,6.4-0.8c-0.3-0.1-0.5-0.1-0.8-0.2c-0.2-0.1-0.5-0.1-0.6-0.1
					C340.3,135.6,340,135.6,340,135.4z"/>
				<path class="st12" d="M345.8,136c-1.1-1.2-0.1-1.5,0.2-2.1c0.1-0.3,0-0.6-0.7-1.1c-0.2-0.1-0.4-0.3-0.7-0.4
					c-0.3-0.1-0.7-0.2-1.1-0.4c-0.4-0.1-0.9-0.3-1.4-0.4c-0.6-0.1-1.2-0.1-1.9-0.2l-0.7-0.1l-0.7,0.1l-1.4,0.2
					c-1,0.2-1.9,0.5-2.8,0.8c-1.8,0.8-3.8,1.8-5.9,3.4c1.5-1.5,1.5-1.7,0.8-1.7c-0.7,0.1-1.9,0.9-2.6,1.5c-4.2,5-6.8,9.6-9.1,13.3
					c-0.7,1.4-1.3,1.4-2,2.5c1.1-3.8,1.9-6.1,2.7-8.3c0.8-2.2,1.6-4.2,3.6-7.2c0.1-0.3,0.6-0.7,1.1-1.3c0.6-0.5,1.2-1.2,2-1.7
					c0.8-0.6,1.6-1.2,2.5-1.8c0.9-0.5,1.7-1,2.3-1.5c0.7-0.4,1.3-0.8,1.9-1.1c0.6-0.3,1.1-0.7,1.6-0.9c1-0.5,1.7-0.9,2.1-1.2
					c0.4-0.4,0.6-0.6,0.6-0.8c-0.1-0.2-0.5-0.4-1.1-0.5c-1.5,0.3-3,0.7-4.4,1.3c-0.7,0.3-1.4,0.6-2.1,0.9l-1.9,1.1
					c-1.3,0.7-2.3,1.7-3.5,2.6c-1.1,0.9-2,2-3,3c-0.3,0.4-0.6,0.8-1,1.2c-0.3,0.5-0.6,1.2-0.9,1.8c-0.4,0.6-0.7,1.4-1,2.1
					c-0.8,1.5-1.4,3.1-2,4.6c-1,3.2,1.9-2,3.1-2.7c-2.4,3.4-5,8.4-4.7,10.3c0.1,1,0,2.2,0,3.3c0,1.1-0.1,2.2,0,3
					c0.1,1,0.5,1.3,0.9,0.9c0.4-0.3,1-1.2,1.7-2.6c1.2-2.7,2.9-6.9,4.7-11.6c1.3-1.5-0.8,3.2,0.9,0.9c0.1-0.3,0.2-0.6,0.3-0.9
					c0.2-0.3,0.4-0.6,0.7-1c0.5-0.7,1-1.4,1.5-2.2c-0.9,1.5,0.6,0.3,0.7,0.6c0.4-0.7,1.9-2.3,1.9-2.5c2.7-1.4,5.2-3.5,9.4-5.3
					c0.3,0,0.5,0.1,0.8,0.1c0.3,0,0.5,0.1,0.8,0.2c0.5,0.1,0.9,0.2,1.4,0.3c0.8,0.3,1.1,0.6,0.7,1.1c0.1,0.1,0.3,0.2,0.7,0.3
					c0.2,0,0.4,0,0.6,0.1c0.2,0.1,0.5,0.1,0.8,0.2c1.7,0.1,3.4,0.9,5.1,1.7C346.6,137.1,346.1,136.6,345.8,136z"/>
				<path class="st13" d="M327.5,145.1c-1.1,1.7-1.8,2.4-2.5,2.8c-0.7,0.3-1.3,0.3-1.9,0.9c-0.5,1.6-0.8,1.8-1.2,2
					c-0.4,0.2-0.7,0.4-1.1,2.1c0.4-1.7,0-1.1-0.1-1.5c-1.8,6.1-3.3,7.8-4.6,12.7c-0.2,0.6-0.2-2.1-0.1-3c-0.1,1.3-0.2,2.8-0.4,4.1
					c-0.2,1.4-0.3,2.7-0.5,3.7c-0.5,2-0.8,3.7-1.2,5.2c-0.3,1.5-0.6,2.7-1,4c-0.6,1.8-1.3,2.3-2.1,1c-0.7-1.3-1.5-4.4-1.5-9.8
					c-0.2,0.6-0.4,1.7-0.6,3c-0.1,0.6-0.2,1.3-0.2,2c0,0.7-0.1,1.4-0.1,2c-0.2,2.6-0.2,4.5-0.8,3.2c-0.4-0.5-0.6-1.5-0.9-2.7
					c-0.2,3.6,0.4,7.8,1.3,12c0.9,4.2,2.4,8.4,4,12.1c0.4,0.1,0.6-0.3,0.3-1.5c-0.2-1.1-0.4-2.1-0.5-2.8c-0.1-0.8,0-1.4,0-1.8
					c0.1-1,0.3-1.5,0.6-1.9c0.5-0.9,1.2-1.5,1.2-5c0-0.7-0.1-2-0.1-3.2c-0.1-1.2-0.1-2.3-0.1-2.7c0.7-3.1,2.1,0.2,2.8-2.9
					c0.2,0.2-0.3-4.8,0.1-5.2c0.8-1.7,1.7-0.7,2.1-4.2c0.2-1.2,0.4-2.3,0.6-3.3c0.2-1,0.5-1.9,0.8-2.7c0.5-1.6,1.1-2.9,1.7-4
					c0.5-1.1,1.2-2,1.8-2.8l0.9-1.2l1-1.1c0.9-4.4,1.9-8.3,4.2-12.1c-0.3,0.3-0.5,0.6-0.8,1c-0.1,0.2-0.3,0.4-0.4,0.6
					C327.7,144.6,327.6,144.9,327.5,145.1z"/>
				<path class="st14" d="M365.8,212.4c0.4-0.6,0.7-1.2,1.1-1.8c0.3-0.6,0.6-1.2,0.9-1.7c0.6-1.1,1.2-2.2,1.6-3.3
					c-2.7,4.8-5.6,8-8.3,10.2c-1.3,1.1-2.7,1.9-3.8,2.6c-1.3,0.6-2.4,1.1-3.5,1.4c-0.3,0.1-1.6,0.8-3.4,1.8
					c-0.9,0.4-2.1,0.9-3.2,1.4c-1.2,0.4-2.6,0.7-3.9,1c-1.4,0.1-2.8,0.3-4.1,0.2c-1.3-0.1-2.6-0.3-3.7-0.5c-1.1-0.3-2-0.7-2.8-1
					c-0.7-0.3-1.2-0.7-1.4-1c0.2-0.1,0.6,0,1,0.1c0.6,0.1,1.2,0.2,1.9,0.3c1.5,0.3,3.5,0.4,5.7,0.3c-1,0-2-0.3-2.9-0.5
					c-0.9-0.1-1.7-0.5-2.4-0.8c-0.7-0.3-1.4-0.6-2-1c-0.6-0.4-1.1-0.7-1.6-1.1c-1-0.6-1.6-1.5-2.2-2.1c-0.3-0.4-0.6-0.7-0.8-1
					c-0.2-0.4-0.4-0.7-0.6-1c-0.4-0.7-0.8-1.3-1.1-2c-0.3-0.7-0.6-1.4-1-2.1c-0.4-0.7-0.7-1.6-1.1-2.4c-0.4-0.8-0.8-1.8-1.3-2.9
					c-1.9-4.4-2.4-8.8-2.4-12c0.1-1.7,0.3-3,0.6-4.1c0.4-1.1,0.8-1.8,1.4-2.1c0.9-0.4,0.4-6.2,1.1-10.9c-0.4-1.8-0.5-3.7-0.7-5.5
					c-0.3,1.3-0.7,2.5-1,3.5c-0.3,1-0.6,1.7-0.9,2c-1.1,0.8-2.1,2.3-2.6,4.8c-0.6,2.5-0.8,6.2,0,11.4c0.5,3.4-2.1,1.5-1.8,3.5
					c0.1,1,0.2,1.9,0.2,2.8c0.1,0.9,0.2,1.7,0.3,2.6c0.2,1.7,0.5,3.1,0.7,4.6c0.2,1.5,0.6,2.8,1,4.3c0.4,1.4,0.9,2.8,1.5,4.4
					c0.2,0.6,0.7,1.5,1.4,2.7c0.6,1.1,1.8,2.4,3,3.7c2.7,1.8,5.6,3.5,9.1,4.3c1.7,0.5,3.5,0.6,5.3,0.8c0.9,0.1,1.8,0,2.7-0.1
					c0.9-0.1,1.8-0.1,2.7-0.3c1.2-0.3,2.4-0.6,3.4-1c1-0.4,1.9-0.8,2.7-1.1c1.6-0.7,2.8-1.4,3.9-2c1-0.6,1.8-1.1,2.5-1.4
					c0.7-0.4,1.4-0.7,1.9-1c1.1-0.6,2-1.1,3.2-2c0.5-0.5,1.1-1.1,1.8-1.8c0.3-0.4,0.7-0.8,1-1.3C365.1,213.6,365.4,213,365.8,212.4z
					"/>
				<path class="st15" d="M318.2,170c-0.4,3.5-1.3,2.6-2.1,4.2c-0.4,0.4,0.1,5.4-0.1,5.2c-0.7,3-2.1-0.3-2.8,2.9
					c-0.1,0.3,0,1.5,0.1,2.7c0.1,1.2,0.1,2.5,0.1,3.2c0,3.4-0.7,4.1-1.2,5c-0.3,0.4-0.5,0.9-0.6,1.9c0,0.5-0.1,1.1,0,1.8
					c0.1,0.8,0.2,1.7,0.5,2.8c0.3,1.2,0.1,1.5-0.3,1.5c0,0,0,0,0,0.1c-1.2-0.9,0.8,3.8,1.5,5c0.8,1.4,1.4,2.7,2.1,3.8
					c0.7,1.1,1.2,2.1,1.9,3c0.7,0.9,1.2,1.8,1.9,2.8c0.8,0.9,1.5,1.9,2.6,3c0.9,0.8,1.8,1.5,2.7,2.3c-1.2-1.4-2.3-2.6-3-3.7
					c-0.7-1.1-1.2-2-1.4-2.7c-0.6-1.6-1.1-3-1.5-4.4c-0.3-1.4-0.7-2.8-1-4.3c-0.2-1.5-0.5-2.9-0.7-4.6c-0.1-0.8-0.2-1.7-0.3-2.6
					c-0.1-0.9-0.2-1.9-0.2-2.8c-0.2-2,2.3-0.1,1.8-3.5c-0.8-5.2-0.6-8.9,0-11.4c0.6-2.5,1.5-3.9,2.6-4.8c0.3-0.3,0.6-1.1,0.9-2
					c0.3-1,0.7-2.2,1-3.5c-0.1-1.6-0.2-3.1-0.1-4.6c0-0.8,0.3-1.7,0.5-2.5c0.1-0.4,0.2-0.7,0.3-0.9c0.1-0.2,0.2-0.4,0.2-0.4
					c0.2-1.3,0.3-2.6,0.6-3.8c0.2-1.2,0.4-2.4,0.6-3.5l-1,1.1l-0.9,1.2c-0.6,0.8-1.3,1.7-1.8,2.8c-0.6,1.1-1.2,2.4-1.7,4
					c-0.2,0.8-0.6,1.7-0.8,2.7C318.6,167.7,318.4,168.8,318.2,170z"/>
				<path class="st16" d="M372.4,198.1c0.3-1.4,0.6-3,1-4.3c0.7-3.9,1.1-3.2,1.5-5c0,0-0.1,0.2-0.1,0.4c-0.1,0.2-0.2,0.4-0.2,0.4
					c0.1-0.4,0.2-0.8,0.3-1.2c-0.9,1.7-1.8,2.6-2.4,2.4c-0.5,2.3-1.1,4.1-1.7,4.9c-0.5,0.6-0.9,1.2-1.3,1.8L368,199
					c-1,1.2-2.1,2.4-3.1,3.6c-0.6,0.7-1.2,1.5-1.9,2.3c-0.7,0.8-1.4,1.8-2.3,2.8c-0.9,1-1.8,2.2-3,3.3c-1.1,1.2-2.5,2.5-4.1,3.8
					c-2.8,2-2.9,1.2-3.4,0.6c-0.2-0.3-0.6-0.6-1.3-0.6c-0.4,0-0.9,0.1-1.5,0.3c-0.6,0.2-1.4,0.3-2.4,0.6c-1.3,0.4-3.3,0.7-5,0.6
					c-1.7-0.2-3.1-0.6-3.4-1.1c-0.1-0.6,0.8-0.9,1.1-1.4c0.2-0.3,0.2-0.5-0.1-0.8c-0.3-0.3-0.8-0.6-1.7-1.1
					c-2.3-1.2-4.2-3.2-5.5-5.3c-0.4-0.5-0.7-1.1-0.9-1.6c-0.3-0.6-0.6-1-0.8-1.6c-0.2-0.5-0.4-1.1-0.6-1.6l-0.3-0.8l-0.2-0.8
					c-0.5-2-0.6-3.8-0.6-5.2c0.1-1.4,0.4-2.4,0.9-3c-1.2-4.4-3.1-9.9-4.1-15.9c-0.7,4.7-0.2,10.5-1.1,10.9c-0.5,0.3-1,1-1.4,2.1
					c-0.4,1.1-0.5,2.4-0.6,4.1c-0.1,3.3,0.5,7.6,2.4,12c0.5,1.1,0.9,2.1,1.3,2.9c0.4,0.9,0.7,1.7,1.1,2.4c0.4,0.7,0.7,1.4,1,2.1
					c0.3,0.7,0.7,1.3,1.1,2c0.2,0.3,0.4,0.7,0.6,1c0.2,0.4,0.5,0.7,0.8,1c0.6,0.7,1.3,1.5,2.2,2.1c0.5,0.3,1,0.7,1.6,1.1
					c0.6,0.4,1.3,0.6,2,1c0.7,0.3,1.5,0.7,2.4,0.8c0.9,0.2,1.9,0.4,2.9,0.5c-2.2,0.1-4.2,0-5.7-0.3c-0.7-0.1-1.3-0.2-1.9-0.3
					c-0.5-0.1-0.8-0.1-1-0.1c0.2,0.3,0.7,0.7,1.4,1c0.7,0.3,1.7,0.7,2.8,1c1.1,0.3,2.4,0.4,3.7,0.5c1.3,0,2.8-0.1,4.1-0.2
					c1.3-0.3,2.7-0.6,3.9-1c1.2-0.5,2.3-0.9,3.2-1.4c1.7-1,3-1.7,3.4-1.8c1.1-0.4,2.3-0.8,3.5-1.4c1.1-0.7,2.5-1.5,3.8-2.6
					c2.7-2.2,5.5-5.4,8.3-10.2c0.6-1.3,1.2-2.6,1.6-3.8C371.5,200.6,371.9,199.3,372.4,198.1z"/>
				<path class="st17" d="M335.7,212c0.9,0.4,1.4,0.8,1.7,1.1c0.3,0.3,0.2,0.5,0.1,0.8c-0.3,0.5-1.2,0.8-1.1,1.4
					c0.2,0.5,1.7,0.9,3.4,1.1c1.7,0.1,3.7-0.3,5-0.6c1-0.3,1.8-0.4,2.4-0.6c0.6-0.2,1.1-0.3,1.5-0.3c0.8,0,1.1,0.2,1.3,0.6
					c0.5,0.6,0.7,1.4,3.4-0.6c1.6-1.3,3-2.5,4.1-3.8c1.2-1.2,2.1-2.3,3-3.3c0.9-1,1.6-2,2.3-2.8c0.7-0.8,1.3-1.6,1.9-2.3
					c1.1-1.2,2.1-2.4,3.1-3.6l1.4-1.6c0.5-0.6,0.9-1.1,1.3-1.8c0.5-0.7,1.2-2.6,1.7-4.9c-0.2-0.1-0.5-0.4-0.6-0.9
					c-0.2-0.3-0.8,1.1-1.5,2.9c-0.8,1.8-1.7,3.9-2.5,5.2c-0.8,0.6-1,0-1-1.2c0-1.2,0.1-3.1,0.3-4.9c0-0.6,0-1.1-0.1-1.7
					c0-0.1,0.1-0.1,0.1-0.2c0-0.5,0-0.9,0-1.4c-0.5,1.1-1,2.2-1.4,3.2c-0.1,0.4-0.2,0.8-0.4,1.2c0-0.2,0.1-0.4,0.1-0.7
					c-0.8,1.3-1.5,2.4-2.1,3.1c-0.6,0.5-1.3,1.4-2,2.4c-0.2,0.5-0.4,1.1-0.6,1.6c0.2-0.5,0.3-0.9,0.4-1.2c-0.6,1-1.4,2.1-2.1,3.2
					c-0.8,1.1-1.6,2.3-2.5,3.3c-0.9,1-1.8,2.1-2.7,2.8c-0.5,0.4-0.9,0.8-1.3,1.1c-0.4,0.3-0.9,0.5-1.3,0.7c-1.3,0.6-4.4,2.6-7.2,3
					c-0.3,0.1-0.7,0.1-1,0.2c-0.3,0-0.6,0-0.9,0c-0.6,0-1-0.1-1.4-0.3c-0.7-0.3-1-0.7-0.8-1.3c-0.5,0.2-1.2,0-1.8-0.1
					c-0.3,0-0.6-0.2-0.9-0.3c-0.3-0.1-0.6-0.2-0.9-0.2c0.4-0.3,0.5-0.7,0.5-1.1c-0.4-0.4-0.8-0.7-1.2-1.1c-0.3-0.4-0.6-0.8-0.6-1
					c0.2-0.1,0.4,0,0.7,0.2c0.3,0.2,0.6,0.3,0.9,0.5l-0.1-0.3l-0.2-0.2c-0.4-0.1-0.9-0.4-1.3-0.5c-0.6,0-1.3-0.2-1.9-0.3
					c0.2-0.1,0.5,0,0.8,0c0.2,0,0.3,0.1,0.5,0.2c0.2,0,0.4,0.1,0.6,0.1c0.3,0,0.6,0,0.8,0c-0.7-0.8-1.5-1.7-2.3-2.9
					c-0.2-0.2-0.5-0.4-0.7-0.5c0.2,0.1,0.4,0.3,0.6,0.4l-0.3-0.5c-0.1-0.1-0.3-0.2-0.4-0.3c-0.1-0.1-0.3-0.3-0.5-0.4
					c-0.3-0.3-0.7-0.6-1.1-1c-0.8-0.9-1.7-1.8-2.6-3c0-0.5,0-1-0.1-1.5c0-0.5-0.1-1.1-0.2-1.6c-0.2-1.1-0.4-2.3-0.8-3.4
					c-0.5,0.5-0.8,1.5-0.9,3c0,1.4,0.1,3.2,0.6,5.2l0.2,0.8l0.3,0.8c0.2,0.5,0.4,1.1,0.6,1.6c0.2,0.6,0.5,1,0.8,1.6
					c0.3,0.6,0.6,1.1,0.9,1.6C331.5,208.8,333.4,210.8,335.7,212z"/>
			</g>
		</g>
	</g>
	<g>
		<path id="XMLID_1546_" class="st18" d="M349.8,171.9c-5.1,0-9.2-6.8-9.2-15.1c0-3.6,0.8-6.8,2-9.4c-1.3-0.5-2.7-0.8-4.1-0.8
			c-9.3,0-16.8,12.3-16.8,27.6c0,15.2,7.5,27.6,16.8,27.6s16.8-12.3,16.8-27.6c0-1.6-0.1-3.2-0.3-4.8
			C353.5,170.9,351.7,171.9,349.8,171.9z"/>
		<path class="st19" d="M350.4,170.5c-9.6-1.1-8.6-16.8-6-22.8c0.3-0.6-0.1-1.4-0.7-1.6c-25.4-7.8-27.6,35.2-18.4,49.1
			c4.7,7.1,13.2,10.5,20.7,5.5c10-6.7,11.8-21,10.9-31.8c-0.1-1.4-2.5-1-3.2-0.4c-1.4,0.7-2.9,1.5-4.3,2.2c-2.4,0.4-1.6,3.2,0.7,2.8
			c2.6-0.4,4.2-1.3,6.1-3.1c-1.1-0.1-2.1-0.3-3.2-0.4c0.7,8.7-0.4,18.8-6.2,25.8c-6.4,7.7-14.6,4-19-3.6c-4.1-7.2-5-16.3-3.9-24.3
			c1.2-8.3,6.4-22.3,17.5-18.9c-0.2-0.5-0.5-1.1-0.7-1.6c-3.5,8.2-3.3,25,8.4,26.3C351.1,173.6,353,170.7,350.4,170.5z"/>
	</g>
	<g>
		<polygon id="XMLID_1549_" class="st0" points="293.9,258.3 251.6,314 209.3,258.3 251.6,216 		"/>
		<path class="st1" d="M292.3,257.8c-14.1,18.6-28.2,37.2-42.3,55.7c1.1-0.1,2.2-0.2,3.3-0.3c-11.3-14.9-22.5-29.7-33.8-44.6
			c-2.3-3.1-4.5-6.6-7.1-9.4c-0.4-0.4-1.1-1.2-1.3-1.7c0.6,1.4-0.7,1.1,1,0c3.1-2.1,5.7-5.7,8.4-8.4c4.3-4.3,8.6-8.6,12.9-12.9
			c6.6-6.6,13.2-13.2,19.8-19.8c-1.1,0.1-2.2,0.2-3.3,0.3c14.1,14.1,28.2,28.2,42.3,42.3c1.1,1.1,4.8-0.4,3.5-1.6
			c-14.1-14.1-28.2-28.2-42.3-42.3c-0.9-0.9-2.5-0.5-3.3,0.3c-14.1,14.1-28.2,28.2-42.3,42.3c-0.3,0.3-0.5,0.9-0.2,1.3
			c14.1,18.6,28.2,37.2,42.3,55.7c0.7,0.9,2.7,0.5,3.3-0.3c14.1-18.6,28.2-37.2,42.3-55.7C297,256.9,293.3,256.5,292.3,257.8z"/>
	</g>
	<polygon id="XMLID_1545_" class="st20" points="291.9,258.6 252.2,310.9 251.4,218.1 	"/>
	<path id="XMLID_1544_" class="st21" d="M185.4,23.6c-10.8-5.1-14-0.1-3.8,4.7c10.6,6.7,29.7,20.6,45,45.1
		c13.2,21.1,22.7,48.6,24.7,56.8c-1.2-12.5-5.2-36.4-20.9-61.5C215.1,44.2,196,30.3,185.4,23.6z"/>
	<path id="XMLID_160_" class="st21" d="M321.2,17.8c10.8-5.1,14-0.1,3.8,4.7c-10.6,6.7-29.7,20.6-45,45.1
		c-13.2,21.1-22.7,48.6-24.7,56.8c1.2-12.5,5.2-36.4,20.9-61.5C291.5,38.5,310.6,24.5,321.2,17.8z"/>
	<path class="st1" d="M203.8,333c9.8,4.4,20.7,4.4,30.6,0c0.8-0.4-2.5-5.9-4.1-5.1c-9.4,4.2-19.9,4.2-29.2,0
		C199.5,327.3,202.4,332.4,203.8,333L203.8,333z"/>
	<path class="st1" d="M265.2,333c9.7,4.8,20.8,4.8,30.6,0c0.9-0.4-2.6-5.9-4.1-5.1c-9.3,4.6-19.9,4.6-29.2,0
		C260.9,327.2,263.8,332.3,265.2,333L265.2,333z"/>
	<path class="st1" d="M236.4,359.1c9.6,5.2,20.9,5.2,30.6,0c0.9-0.5-2.7-5.9-4.1-5.1c-9.2,5-20,5-29.2,0
		C232.1,353.3,235,358.4,236.4,359.1L236.4,359.1z"/>
	<path class="st1" d="M192.4,382.8c9.9,4.1,20.7,4.2,30.6,0c0.8-0.3-2.5-5.8-4.1-5.1c-9.4,4-19.8,4-29.2,0
		C188,377.1,191,382.2,192.4,382.8L192.4,382.8z"/>
	<path class="st1" d="M275.6,381.9c9.8,4.6,20.8,4.6,30.6,0c0.9-0.4-2.6-5.9-4.1-5.1c-9.4,4.4-19.9,4.4-29.2,0
		C271.2,376.1,274.2,381.3,275.6,381.9L275.6,381.9z"/>
</g>
</svg>