<svg viewBox="0 0 16 16" version="1.1" xmlns="http://www.w3.org/2000/svg" xmlns:xlink="http://www.w3.org/1999/xlink">
    <!-- Generator: Sketch 49.1 (51147) - http://www.bohemiancoding.com/sketch -->
    <title>localhost-black</title>
    <desc>Created with Sketch.</desc>
    <defs></defs>
    <g id="localhost-black" stroke="none" stroke-width="1" fill="none" fill-rule="evenodd">
        <g id="Group">
            <rect id="Rectangle" fill="#323D48" x="0" y="0" width="16" height="16" rx="1"></rect>
            <path d="M5.5625,5 L6.36328125,5 C6.38411469,5.00781254 6.39713539,5.01888014 6.40234375,5.03320312 C6.40755211,5.04752611 6.41015625,5.06249992 6.41015625,5.078125 C6.41015625,5.08593754 6.40755211,5.10091135 6.40234375,5.12304688 C6.39713539,5.1451824 6.39192711,5.16861967 6.38671875,5.19335938 L6.37109375,5.26757812 C6.36588539,5.29231783 6.36328125,5.31249992 6.36328125,5.328125 L6.36328125,5.453125 C6.58463652,5.49739605 6.7897126,5.58268166 6.97851562,5.70898438 C7.16731865,5.83528709 7.3385409,5.99088449 7.4921875,6.17578125 L7.01953125,6.7734375 C6.98046855,6.7734375 6.95117197,6.76432301 6.93164062,6.74609375 C6.91210928,6.72786449 6.8958334,6.7057293 6.8828125,6.6796875 C6.8697916,6.6536457 6.858724,6.62565119 6.84960938,6.59570312 C6.84049475,6.56575506 6.82812508,6.53776055 6.8125,6.51171875 C6.76041641,6.45182262 6.69075564,6.39322945 6.60351562,6.3359375 C6.51627561,6.27864555 6.42317758,6.23828137 6.32421875,6.21484375 L6.32421875,7.390625 C6.5351573,7.45833367 6.72135336,7.53385375 6.8828125,7.6171875 C7.04427164,7.70052125 7.17903592,7.79687445 7.28710938,7.90625 C7.39518283,8.01562555 7.47656223,8.13867119 7.53125,8.27539062 C7.58593777,8.41211006 7.61328125,8.56770746 7.61328125,8.7421875 C7.61328125,8.90625082 7.5846357,9.06315029 7.52734375,9.21289062 C7.4700518,9.36263096 7.38737033,9.4986973 7.27929688,9.62109375 C7.17122342,9.7434902 7.04036535,9.84895789 6.88671875,9.9375 C6.73307215,10.0260421 6.55859473,10.0898436 6.36328125,10.1289062 L6.36328125,10.5585938 L5.5625,10.5585938 L5.5625,10.1523438 C5.31770711,10.1106769 5.08203238,10.0286464 4.85546875,9.90625 C4.62890512,9.78385355 4.42708422,9.62500098 4.25,9.4296875 L4.73828125,8.7421875 C4.7825523,8.7552084 4.81705717,8.77473945 4.84179688,8.80078125 C4.86653658,8.82682305 4.8854166,8.85416652 4.8984375,8.8828125 C4.9114584,8.91145848 4.922526,8.93880195 4.93164062,8.96484375 C4.94075525,8.99088555 4.95182285,9.0104166 4.96484375,9.0234375 C5.05338586,9.11979215 5.14778596,9.20182258 5.24804688,9.26953125 C5.34830779,9.33723992 5.46614516,9.38541652 5.6015625,9.4140625 L5.6015625,7.984375 C5.41145738,7.91406215 5.24153721,7.83593793 5.09179688,7.75 C4.94205654,7.66406207 4.81575572,7.5683599 4.71289062,7.46289062 C4.61002553,7.35742135 4.53125027,7.24023502 4.4765625,7.11132812 C4.42187473,6.98242123 4.39453125,6.8411466 4.39453125,6.6875 C4.39453125,6.54166594 4.42187473,6.40234441 4.4765625,6.26953125 C4.53125027,6.13671809 4.60937449,6.01692762 4.7109375,5.91015625 C4.81250051,5.80338488 4.93554615,5.71158893 5.08007812,5.63476562 C5.2246101,5.55794232 5.38541578,5.50130227 5.5625,5.46484375 L5.5625,5 Z M6.32421875,9.3671875 C6.46484445,9.31770809 6.57877561,9.24739629 6.66601562,9.15625 C6.75325564,9.06510371 6.796875,8.94401117 6.796875,8.79296875 C6.796875,8.66796813 6.75846393,8.55859422 6.68164062,8.46484375 C6.60481732,8.37109328 6.48567789,8.2955732 6.32421875,8.23828125 L6.32421875,9.3671875 Z M5.6015625,6.20703125 C5.49218695,6.23567723 5.40364617,6.28645797 5.3359375,6.359375 C5.26822883,6.43229203 5.234375,6.52604109 5.234375,6.640625 C5.234375,6.72395875 5.26171848,6.80989539 5.31640625,6.8984375 C5.37109402,6.98697961 5.46614516,7.05468727 5.6015625,7.1015625 L5.6015625,6.20703125 Z M8.08984375,10.2695312 L11.6289062,10.2695312 L11.6289062,11.015625 L8.08984375,11.015625 L8.08984375,10.2695312 Z" id="$_" fill="#FFFFFF"></path>
        </g>
    </g>
</svg>