<svg viewBox="0 0 16 16" version="1.1" xmlns="http://www.w3.org/2000/svg" xmlns:xlink="http://www.w3.org/1999/xlink">
    <!-- Generator: Sketch 49.1 (51147) - http://www.bohemiancoding.com/sketch -->
    <title>icon/status/error red</title>
    <desc>Created with Sketch.</desc>
    <defs></defs>
    <g id="icon/status/error-red" stroke="none" stroke-width="1" fill="none" fill-rule="evenodd">
        <path d="M8,0 C3.6,0 0,3.6 0,8 C0,12.4 3.6,16 8,16 C12.4,16 16,12.4 16,8 C16,3.6 12.4,0 8,0 Z M8,12 C7.4,12 7,11.6 7,11 C7,10.4 7.4,10 8,10 C8.6,10 9,10.4 9,11 C9,11.6 8.6,12 8,12 Z M9,9 L7,9 L7,4 L9,4 L9,9 Z" id="icon" fill="#F36866"></path>
    </g>
</svg>